<svg xmlns="http://www.w3.org/2000/svg" style="isolation:isolate" viewBox="0 0 64 64"><defs><clipPath id="a"><path d="M0 0h64v64H0z"/></clipPath></defs><g clip-path="url(#a)"><path d="M30.006 18.489c-.555 0-1.006.552-1.006 1.232v31.79c0 .68.451 1.231 1.006 1.231.556 0 1.007-.551 1.007-1.231v-31.79c0-.68-.451-1.232-1.007-1.232z" fill="#fff"/><path d="M39.576 35.055c-.481-.278-1.178.028-1.555.681l-8.785 15.216c-.377.654-.293 1.41.188 1.688.481.277 1.178-.028 1.555-.682l8.785-15.215c.377-.654.293-1.41-.188-1.688z" fill="#fff"/><path d="M31.994 11.258c-.556 0-1.007.551-1.007 1.231v31.79c0 .68.451 1.232 1.007 1.232.555 0 1.006-.552 1.006-1.232v-31.79c0-.68-.451-1.231-1.006-1.231z" fill="#222"/><path d="M41.563 27.824c-.481-.278-1.177.027-1.555.681L31.223 43.72c-.377.654-.293 1.41.188 1.688s1.178-.028 1.555-.681l8.785-15.216c.378-.654.294-1.41-.188-1.687z" fill="#222"/></g></svg>